<svg width="138" height="31" viewBox="0 0 138 31" fill="none" xmlns="http://www.w3.org/2000/svg">
<g clip-path="url(#clip0_1155_1542)">
<path d="M44.677 4.9411C44.677 5.03486 44.6233 5.12861 44.5427 5.17549L43.1534 5.97241V6.00589L44.5427 6.80281C44.6233 6.84968 44.677 6.93674 44.677 7.03719V10.9883C44.677 11.082 44.6233 11.1758 44.5427 11.2227L42.7104 12.2808C42.6701 12.3076 42.6231 12.3143 42.5761 12.3143H36.2802C36.1325 12.3143 36.0117 12.1937 36.0117 12.0464V0.273447C36.0117 0.166299 36.099 0.0859375 36.1997 0.0859375H42.5694C42.6164 0.0859375 42.6634 0.0993311 42.7036 0.119421L44.536 1.17751C44.6166 1.22439 44.6703 1.31145 44.6703 1.4119V4.9411H44.677ZM38.4616 2.4499V4.67323C38.4616 4.82056 38.5824 4.9411 38.7301 4.9411H41.9519C42.0996 4.9411 42.2204 4.82056 42.2204 4.67323V2.4499C42.2204 2.30257 42.0996 2.18203 41.9519 2.18203H38.7301C38.5824 2.18203 38.4616 2.30257 38.4616 2.4499ZM38.4616 7.30506V9.9436C38.4616 10.0909 38.5824 10.2115 38.7301 10.2115H41.9519C42.0996 10.2115 42.2204 10.0909 42.2204 9.9436V7.30506C42.2204 7.15774 42.0996 7.03719 41.9519 7.03719H38.7301C38.5824 7.03719 38.4616 7.15774 38.4616 7.30506Z" fill="#131416"/>
<path d="M49.3472 7.26488V10.0307C49.3472 10.1378 49.4345 10.2182 49.5352 10.2182H54.039C54.1464 10.2182 54.2269 10.3052 54.2269 10.4057V12.1267C54.2269 12.2339 54.1397 12.3143 54.039 12.3143H47.0786C46.9712 12.3143 46.8906 12.2272 46.8906 12.1267V0.273447C46.8906 0.166299 46.9779 0.0859375 47.0786 0.0859375H54.039C54.1464 0.0859375 54.2269 0.172996 54.2269 0.273447V1.99452C54.2269 2.10167 54.1397 2.18203 54.039 2.18203H49.5352C49.4278 2.18203 49.3472 2.26909 49.3472 2.36954V4.78708C49.3472 4.89422 49.4345 4.97459 49.5352 4.97459H52.9919C53.0993 4.97459 53.1798 5.06164 53.1798 5.1621V6.88317C53.1798 6.99032 53.0926 7.07068 52.9919 7.07068H49.5352C49.4278 7.07068 49.3472 7.15774 49.3472 7.25819V7.26488Z" fill="#131416"/>
<path d="M59.0585 12.12V7.14434C59.0585 7.14434 59.0518 7.07737 59.0317 7.05059L55.2796 0.380596C55.2058 0.253357 55.2998 0.0926343 55.4474 0.0926343H56.9778C57.4678 0.0926343 57.9175 0.360505 58.1524 0.789099L60.26 4.66653H60.2936L62.4146 0.782402C62.6495 0.353809 63.0992 0.0859375 63.5892 0.0859375H65.1262C65.2739 0.0859375 65.3679 0.24666 65.294 0.373899L61.5286 7.06398C61.5286 7.06398 61.5017 7.12425 61.5017 7.15774V12.12C61.5017 12.2272 61.4145 12.3143 61.3071 12.3143H59.2465C59.1391 12.3143 59.0518 12.2272 59.0518 12.12H59.0585Z" fill="#131416"/>
<path d="M75.815 11.2841L73.9222 12.3756C73.9222 12.3756 73.8618 12.4024 73.8282 12.4024H68.4518C68.4518 12.4024 68.3847 12.3957 68.3579 12.3756L66.4651 11.2841C66.4047 11.2506 66.3711 11.1903 66.3711 11.1233V1.27908C66.3711 1.21212 66.4047 1.15185 66.4651 1.11836L68.3579 0.0267871C68.3579 0.0267871 68.4183 0 68.4518 0H73.8282C73.8282 0 73.8953 0.00669678 73.9222 0.0267871L75.815 1.11836C75.8754 1.15185 75.9089 1.21212 75.9089 1.27908V11.1233C75.9089 11.1903 75.8754 11.2506 75.815 11.2841ZM68.821 2.2836V10.1121C68.821 10.2193 68.9083 10.2996 69.0089 10.2996H73.2711C73.3785 10.2996 73.459 10.2126 73.459 10.1121V2.2836C73.459 2.17645 73.3718 2.09609 73.2711 2.09609H69.0089C68.9015 2.09609 68.821 2.18315 68.821 2.2836Z" fill="#131416"/>
<path d="M99.8579 11.1959L97.9651 12.2875C97.9651 12.2875 97.9047 12.3143 97.8712 12.3143H90.602C90.4946 12.3143 90.4141 12.2272 90.4141 12.1267V0.273447C90.4141 0.166299 90.5013 0.0859375 90.602 0.0859375H97.8712C97.8712 0.0859375 97.9383 0.0926343 97.9651 0.112725L99.8579 1.2043C99.9183 1.23778 99.9519 1.29805 99.9519 1.36502V11.0352C99.9519 11.1021 99.9183 11.1624 99.8579 11.1959ZM92.864 2.36954V10.024C92.864 10.1311 92.9512 10.2115 93.0519 10.2115H97.3141C97.4215 10.2115 97.502 10.1244 97.502 10.024V2.36954C97.502 2.26239 97.4147 2.18203 97.3141 2.18203H93.0519C92.9445 2.18203 92.864 2.26909 92.864 2.36954Z" fill="#131416"/>
<path d="M38.4627 25.1V29.9618C38.4627 30.069 38.3755 30.1494 38.2748 30.1494H36.2075C36.1001 30.1494 36.0195 30.0623 36.0195 29.9618V18.1152C36.0195 18.0081 36.1068 17.9277 36.2075 17.9277H38.2748C38.3822 17.9277 38.4627 18.0148 38.4627 18.1152V22.6289C38.4627 22.736 38.55 22.8164 38.6507 22.8164H43.0806C43.188 22.8164 43.2686 22.7293 43.2686 22.6289V18.1152C43.2686 18.0081 43.3558 17.9277 43.4565 17.9277H45.5238C45.6312 17.9277 45.7117 18.0148 45.7117 18.1152V29.9618C45.7117 30.069 45.6245 30.1494 45.5238 30.1494H43.4565C43.3491 30.1494 43.2686 30.0623 43.2686 29.9618V25.1C43.2686 24.9928 43.1813 24.9125 43.0806 24.9125H38.6507C38.5433 24.9125 38.4627 24.9995 38.4627 25.1Z" fill="#131416"/>
<path d="M57.392 29.1161L55.4992 30.2077C55.4992 30.2077 55.4388 30.2345 55.4052 30.2345H50.0221C50.0221 30.2345 49.955 30.2278 49.9282 30.2077L48.0354 29.1161C47.975 29.0826 47.9414 29.0223 47.9414 28.9554V19.1111C47.9414 19.0441 47.975 18.9839 48.0354 18.9504L49.9282 17.8588C49.9282 17.8588 49.9886 17.832 50.0221 17.832H55.4052C55.4052 17.832 55.4723 17.8387 55.4992 17.8588L57.392 18.9504C57.4524 18.9839 57.486 19.0441 57.486 19.1111V28.9554C57.486 29.0223 57.4524 29.0826 57.392 29.1161ZM50.3913 20.1156V27.9509C50.3913 28.0513 50.4719 28.1384 50.5792 28.1384H54.8481C54.9488 28.1384 55.0361 28.058 55.0361 27.9509V20.1156C55.0361 20.0152 54.9555 19.9281 54.8481 19.9281H50.5792C50.4786 19.9281 50.3913 20.0085 50.3913 20.1156Z" fill="#131416"/>
<path d="M74.4382 25.1067V27.8591C74.4382 27.9662 74.5254 28.06 74.6395 28.06H79.1299C79.2373 28.06 79.3313 28.147 79.3313 28.2609V29.9618C79.3313 30.069 79.244 30.1627 79.1299 30.1627H72.1896C72.0823 30.1627 71.9883 30.0757 71.9883 29.9618V18.1286C71.9883 18.0215 72.0755 17.9277 72.1896 17.9277H79.1299C79.2373 17.9277 79.3313 18.0148 79.3313 18.1286V19.8296C79.3313 19.9368 79.244 20.0305 79.1299 20.0305H74.6395C74.5322 20.0305 74.4382 20.1176 74.4382 20.2314V22.6289C74.4382 22.736 74.5254 22.8298 74.6395 22.8298H78.0761C78.1835 22.8298 78.2775 22.9168 78.2775 23.0307V24.7317C78.2775 24.8388 78.1902 24.9326 78.0761 24.9326H74.6395C74.5322 24.9326 74.4382 25.0196 74.4382 25.1335V25.1067Z" fill="#131416"/>
<path d="M84.164 29.9551V24.9794C84.164 24.9794 84.1573 24.9125 84.1372 24.8857L80.3851 18.2157C80.3113 18.0885 80.4053 17.9277 80.5529 17.9277H82.0967C82.58 17.9277 83.023 18.1889 83.2579 18.6175L85.3722 22.5083H85.4057L87.5335 18.6175C87.7684 18.1956 88.2114 17.9277 88.6946 17.9277H90.2384C90.3861 17.9277 90.4801 18.0885 90.4062 18.2157L86.6408 24.9058C86.6408 24.9058 86.6139 24.966 86.6139 24.9995V29.9618C86.6139 30.069 86.5267 30.1561 86.4193 30.1561H84.3587C84.2513 30.1561 84.164 30.069 84.164 29.9618V29.9551Z" fill="#131416"/>
<path d="M98.2072 26.5646H100.295C100.395 26.5646 100.476 26.645 100.476 26.7454V28.9554C100.476 29.0223 100.442 29.0826 100.382 29.1094L98.4824 30.201C98.4824 30.201 98.422 30.2278 98.3884 30.2278H93.5289C93.5289 30.2278 93.4684 30.2211 93.4349 30.201L91.5354 29.1094C91.4817 29.0759 91.4414 29.0157 91.4414 28.9554V19.1044C91.4414 19.0375 91.475 18.9772 91.5354 18.9504L93.4349 17.8588C93.4349 17.8588 93.4953 17.832 93.5289 17.832H98.3884C98.3884 17.832 98.4488 17.8387 98.4824 17.8588L100.382 18.9504C100.436 18.9839 100.476 19.0441 100.476 19.1044V21.3144C100.476 21.4148 100.395 21.4952 100.295 21.4952H98.2072C98.1065 21.4952 98.0259 21.4148 98.0259 21.3144V20.1022C98.0259 20.0018 97.9454 19.9214 97.8447 19.9214H94.0927C93.992 19.9214 93.9115 20.0018 93.9115 20.1022V27.9509C93.9115 28.0513 93.992 28.1317 94.0927 28.1317H97.8447C97.9454 28.1317 98.0259 28.0513 98.0259 27.9509V26.7387C98.0259 26.6383 98.1065 26.5579 98.2072 26.5579V26.5646Z" fill="#131416"/>
<path d="M112.145 29.1172L110.245 30.2088C110.245 30.2088 110.185 30.2356 110.151 30.2356H104.768C104.768 30.2356 104.708 30.2289 104.674 30.2088L102.775 29.1172C102.721 29.0837 102.688 29.0235 102.688 28.9632V19.1122C102.688 19.0453 102.721 18.985 102.781 18.9582L104.681 17.8666C104.681 17.8666 104.741 17.8398 104.768 17.8398H110.151C110.151 17.8398 110.212 17.8465 110.239 17.8666L112.138 18.9582C112.192 18.9917 112.232 19.052 112.232 19.1122V28.9632C112.232 29.0302 112.198 29.0904 112.145 29.1172ZM105.144 20.1101V27.9587C105.144 28.0591 105.225 28.1395 105.325 28.1395H109.601C109.702 28.1395 109.782 28.0591 109.782 27.9587V20.1101C109.782 20.0096 109.702 19.9292 109.601 19.9292H105.325C105.225 19.9292 105.144 20.0096 105.144 20.1101Z" fill="#131416"/>
<path d="M137.998 22.822C137.998 22.8889 137.958 22.9559 137.898 22.9894L136.475 23.8064V23.8399L137.898 24.6569C137.958 24.6904 137.998 24.7573 137.998 24.8243V28.8625C137.998 28.9294 137.958 28.9964 137.904 29.0299L136.018 30.1215C136.018 30.1215 135.958 30.1482 135.924 30.1482H129.534C129.427 30.1482 129.34 30.0612 129.34 29.954V18.1141C129.34 18.007 129.427 17.9199 129.534 17.9199H135.924C135.958 17.9199 135.991 17.9266 136.018 17.9467L137.904 19.0383C137.965 19.0718 137.998 19.1387 137.998 19.2057V22.822ZM131.783 20.2102V22.5809C131.783 22.688 131.87 22.7751 131.978 22.7751H135.354C135.461 22.7751 135.549 22.688 135.549 22.5809V20.2102C135.549 20.1031 135.461 20.016 135.354 20.016H131.978C131.87 20.016 131.783 20.1031 131.783 20.2102ZM131.783 25.0654V27.8579C131.783 27.9651 131.87 28.0521 131.978 28.0521H135.354C135.461 28.0521 135.549 27.9651 135.549 27.8579V25.0654C135.549 24.9582 135.461 24.8712 135.354 24.8712H131.978C131.87 24.8712 131.783 24.9582 131.783 25.0654Z" fill="#131416"/>
<path d="M24.3782 27.2156C23.8144 27.2156 23.2909 26.9142 23.009 26.4253L8.2894 1.06465C7.92023 0.428452 7.24232 0.0400391 6.5107 0.0400391H0.382588C0.167802 0.0467358 0 0.214155 0 0.421755V2.63839C0 2.84599 0.167802 3.02011 0.382588 3.02011H5.0609C5.62471 3.02011 6.15496 3.32146 6.43016 3.81033L20.841 28.642C21.3981 29.5996 22.4317 30.1956 23.5392 30.1956H29.0498C29.2579 30.1956 29.4324 30.0282 29.4324 29.8139V27.604C29.4324 27.3964 29.2646 27.2223 29.0498 27.2223H24.3715L24.3782 27.2156Z" fill="#131416"/>
<path d="M13.4174 20.1564C13.451 20.2167 13.451 20.2903 13.4174 20.3439L8.59815 28.6345C8.04105 29.5921 7.00739 30.1882 5.89319 30.1882H0.382588C0.174514 30.1882 0 30.0207 0 29.8064V27.5965C0 27.3889 0.167802 27.2148 0.382588 27.2148H5.06089C5.62471 27.2148 6.14825 26.9134 6.43016 26.4246L11.5917 17.5446C11.6656 17.4174 11.8468 17.4174 11.9206 17.5446L13.4107 20.1497L13.4174 20.1564Z" fill="#131416"/>
<path d="M16.0213 10.0796C15.9877 10.0194 15.9877 9.94569 16.0213 9.89212L20.8405 1.6015C21.3976 0.643865 22.4313 0.0478516 23.5455 0.0478516H29.0561C29.2642 0.0478516 29.4387 0.215271 29.4387 0.429568V2.6395C29.4387 2.8471 29.2709 3.02122 29.0561 3.02122H24.3778C23.814 3.02122 23.2904 3.32258 23.0085 3.81144L17.8469 12.6914C17.7731 12.8186 17.5919 12.8186 17.5181 12.6914L16.028 10.0863L16.0213 10.0796Z" fill="#131416"/>
<path d="M84.4863 6.16661L80.8215 0.675254C80.5732 0.306931 80.157 0.0859375 79.7141 0.0859375H78.3314C78.224 0.0859375 78.1367 0.172996 78.1367 0.280144V12.1134C78.1367 12.2205 78.224 12.3076 78.3314 12.3076H80.392C80.4994 12.3076 80.5866 12.2205 80.5866 12.1134V4.39866H80.6202L84.4125 10.0775C84.4662 10.1579 84.587 10.1177 84.587 10.024V6.48136C84.587 6.36752 84.5534 6.26037 84.493 6.16661H84.4863Z" fill="#131416"/>
<path d="M88.0081 0.0859375H85.934C85.8302 0.0859375 85.7461 0.169888 85.7461 0.273447V12.1267C85.7461 12.2303 85.8302 12.3143 85.934 12.3143H88.0081C88.1119 12.3143 88.196 12.2303 88.196 12.1267V0.273447C88.196 0.169888 88.1119 0.0859375 88.0081 0.0859375Z" fill="#131416"/>
<path d="M66.0645 24.0006L62.3997 18.5092C62.1513 18.1409 61.7352 17.9199 61.2922 17.9199H59.9095C59.8021 17.9199 59.7148 18.007 59.7148 18.1141V29.9473C59.7148 30.0545 59.8021 30.1415 59.9095 30.1415H61.9701C62.0775 30.1415 62.1647 30.0545 62.1647 29.9473V22.2326H62.1983L65.9906 27.9115C66.0443 27.9919 66.1651 27.9517 66.1651 27.8579V24.3153C66.1651 24.2015 66.1316 24.0944 66.0712 24.0006H66.0645Z" fill="#131416"/>
<path d="M69.5784 17.9199H67.5043C67.4005 17.9199 67.3164 18.0039 67.3164 18.1074V29.9607C67.3164 30.0643 67.4005 30.1482 67.5043 30.1482H69.5784C69.6822 30.1482 69.7663 30.0643 69.7663 29.9607V18.1074C69.7663 18.0039 69.6822 17.9199 69.5784 17.9199Z" fill="#131416"/>
<path d="M120.793 26.9137L118.021 18.8173C117.84 18.2815 117.33 17.9199 116.759 17.9199H114.645C114.544 17.9199 114.457 18.007 114.457 18.1074V29.9607C114.457 30.0612 114.544 30.1482 114.645 30.1482H116.632C116.732 30.1482 116.82 30.0612 116.82 29.9607V21.9715H116.853L119.592 30.021C119.619 30.0947 119.692 30.1482 119.766 30.1482H121.766C121.834 30.1482 121.881 30.0813 121.854 30.021L120.787 26.9137H120.793Z" fill="#131416"/>
<path d="M126.94 17.9199H124.846C124.276 17.9199 123.765 18.2815 123.584 18.824L121.483 24.985C121.443 25.1056 121.443 25.2328 121.483 25.3533L122.457 28.1861C122.483 28.2731 122.604 28.2731 122.638 28.1861L124.732 22.0786H124.766V29.9607C124.766 30.0612 124.853 30.1482 124.953 30.1482H126.94C127.041 30.1482 127.128 30.0612 127.128 29.9607V18.1074C127.128 18.007 127.041 17.9199 126.94 17.9199Z" fill="#131416"/>
</g>
<defs>
<clipPath id="clip0_1155_1542">
<rect width="138" height="30.236" fill="white"/>
</clipPath>
</defs>
</svg>
