<svg width="278" height="62" viewBox="0 0 278 62" fill="none" xmlns="http://www.w3.org/2000/svg">
<path d="M22.7188 39.2477V30.6152C22.7188 30.1133 23.1203 29.7118 23.6222 29.7118H44.0658C44.5677 29.7118 44.9692 30.1133 44.9692 30.6152V55.6093C44.9692 55.9439 44.8019 56.245 44.5008 56.4123L35.0318 61.8662C35.0318 61.8662 34.7307 62 34.5634 62H10.4058C10.4058 62 10.0712 61.9665 9.9374 61.8662L0.46843 56.4123C0.200756 56.245 0 55.9439 0 55.6093V6.35726C0 6.02267 0.167296 5.72153 0.46843 5.55424L9.9374 0.133837C9.9374 0.133837 10.2385 0 10.4058 0H34.6303C34.6303 0 34.9315 0.0334593 35.0988 0.133837L44.5677 5.5877C44.8354 5.75499 45.0362 6.05612 45.0362 6.39072V17.4323C45.0362 17.9342 44.6346 18.3357 44.1328 18.3357H33.7269C33.225 18.3357 32.8235 17.9342 32.8235 17.4323V11.4096C32.8235 10.9077 32.422 10.5062 31.9201 10.5062H13.1829C12.6811 10.5062 12.2795 10.9077 12.2795 11.4096V50.5904C12.2795 51.0923 12.6811 51.4938 13.1829 51.4938H31.8532C32.3551 51.4938 32.7566 51.0923 32.7566 50.5904V41.088C32.7566 40.5861 32.3551 40.1846 31.8532 40.1846H23.6557C23.1538 40.1846 22.7523 39.7831 22.7523 39.2812L22.7188 39.2477Z" fill="white"/>
<path d="M99.382 61.5302H88.0393C87.7047 61.5302 87.4036 61.3629 87.2363 61.0618L74.6556 38.9452C74.4883 38.6441 74.1872 38.4768 73.8526 38.4768H67.6961C67.1942 38.4768 66.7927 38.8783 66.7927 39.3802V60.5933C66.7927 61.0952 66.3912 61.4967 65.8893 61.4967H55.4835C54.9816 61.4967 54.5801 61.0952 54.5801 60.5933V1.33699C54.5801 0.835105 54.9816 0.433594 55.4835 0.433594H87.4036C87.4036 0.433594 87.7382 0.467053 87.872 0.567431L97.341 6.02129C97.6087 6.18858 97.8094 6.48972 97.8094 6.82431V32.1195C97.8094 32.4541 97.6421 32.7552 97.341 32.9225L88.4743 38.0418C88.0393 38.3095 87.872 38.8448 88.1397 39.2798L100.152 60.1584C100.486 60.7606 100.051 61.5302 99.3486 61.5302H99.382ZM66.8596 11.8097V27.1006C66.8596 27.6025 67.2611 28.004 67.763 28.004H84.6934C85.1953 28.004 85.5968 27.6025 85.5968 27.1006V11.8097C85.5968 11.3078 85.1953 10.9063 84.6934 10.9063H67.763C67.2611 10.9063 66.8596 11.3078 66.8596 11.8097Z" fill="white"/>
<path d="M109.953 60.6268V1.33699C109.953 0.835105 110.355 0.433594 110.857 0.433594H121.262C121.764 0.433594 122.166 0.835105 122.166 1.33699V60.5933C122.166 61.0952 121.764 61.4967 121.262 61.4967H110.857C110.355 61.4967 109.953 61.0952 109.953 60.5933V60.6268Z" fill="white"/>
<path d="M134.035 60.6268V1.33699C134.035 0.835105 134.437 0.433594 134.939 0.433594H145.344C145.846 0.433594 146.248 0.835105 146.248 1.33699V50.1206C146.248 50.6225 146.649 51.024 147.151 51.024H166.189C166.691 51.024 167.093 51.4255 167.093 51.9274V60.5599C167.093 61.0618 166.691 61.4633 166.189 61.4633H134.939C134.437 61.4633 134.035 61.0618 134.035 60.5599V60.6268Z" fill="white"/>
<path d="M173.758 60.6268V1.33699C173.758 0.835105 174.159 0.433594 174.661 0.433594H185.067C185.569 0.433594 185.97 0.835105 185.97 1.33699V50.1206C185.97 50.6225 186.372 51.024 186.874 51.024H205.912C206.414 51.024 206.816 51.4255 206.816 51.9274V60.5599C206.816 61.0618 206.414 61.4633 205.912 61.4633H174.661C174.159 61.4633 173.758 61.0618 173.758 60.5599V60.6268Z" fill="white"/>
<path d="M272.624 52.5289L272.256 51.9601L258.504 30.2785L251.612 19.3374L239.934 0.834384C239.767 0.56671 239.466 0.399414 239.165 0.399414H227.521C226.818 0.399414 226.35 1.20244 226.752 1.8047L244.719 30.2451L251.879 41.5543L264.259 61.061C264.427 61.3287 264.728 61.496 265.029 61.496H276.639C277.375 61.496 277.81 60.693 277.409 60.0907L272.591 52.4955L272.624 52.5289Z" fill="white"/>
<path d="M263.285 22.7844L276.568 1.83888C276.97 1.23662 276.501 0.433594 275.799 0.433594H264.188C263.887 0.433594 263.586 0.60089 263.419 0.868564L255.957 12.6128C255.756 12.9139 255.756 13.2819 255.957 13.5831L261.779 22.7844C262.147 23.3532 262.95 23.3532 263.318 22.7844H263.285Z" fill="white"/>
<path d="M240.008 37.7752L225.888 60.126C225.52 60.7283 225.955 61.5313 226.657 61.5313H238.301C238.602 61.5313 238.903 61.364 239.071 61.0963L247.369 47.9469C247.569 47.6457 247.569 47.2777 247.369 46.9765L241.547 37.7752C241.179 37.2064 240.376 37.2064 240.008 37.7752Z" fill="white"/>
</svg>
